<?xml version="1.0" encoding="utf-8"?>
<!-- Generator: Adobe Illustrator 16.0.0, SVG Export Plug-In . SVG Version: 6.00 Build 0)  -->
<!DOCTYPE svg PUBLIC "-//W3C//DTD SVG 1.1//EN" "http://www.w3.org/Graphics/SVG/1.1/DTD/svg11.dtd">
<svg version="1.1" id="Capa_1" xmlns="http://www.w3.org/2000/svg" xmlns:xlink="http://www.w3.org/1999/xlink" x="0px" y="0px"
	 width="612px" height="612px" viewBox="0 0 612 612" enable-background="new 0 0 612 612" xml:space="preserve">
<g>
	<g id="Layers">
		<g>
			<path d="M572.75,0h-382.5C169.136,0,152,17.117,152,38.25V153H37.25C16.136,153-1,170.117-1,191.25v382.5
				C-1,594.864,16.136,612,37.25,612h382.5c21.133,0,38.25-17.136,38.25-38.25V459h114.75c21.112,0,38.25-17.136,38.25-38.25V38.25
				C611,17.117,593.864,0,572.75,0z M400.625,554.625H56.375v-344.25H152V420.75c0,21.133,17.136,38.25,38.25,38.25h210.375V554.625
				z M553.625,401.625h-344.25V57.375h344.25V401.625z"/>
		</g>
	</g>
</g>
<rect x="223.5" fill="#FFFFFF" width="50" height="82.5"/>
<rect x="349.5" y="-1.5" fill="#FFFFFF" width="50" height="76"/>
<rect x="479.5" y="-3" fill="#FFFFFF" width="53" height="82.5"/>
<rect x="552" y="77.5" fill="#FFFFFF" width="64" height="48"/>
<rect x="549" y="206.5" fill="#FFFFFF" width="64" height="40"/>
<rect x="548" y="329.5" fill="#FFFFFF" width="64" height="49"/>
<rect x="151" y="76.5" fill="#FFFFFF" width="64" height="49"/>
<rect x="152" y="204.5" fill="#FFFFFF" width="64" height="43"/>
<rect x="151" y="326.5" fill="#FFFFFF" width="64" height="50"/>
<rect x="229.5" y="377" fill="#FFFFFF" width="51" height="82.5"/>
<rect x="355.5" y="383.5" fill="#FFFFFF" width="46.333" height="76"/>
<rect x="480.5" y="377" fill="#FFFFFF" width="52" height="82.5"/>
</svg>
